<svg xmlns="http://www.w3.org/2000/svg" xmlns:xlink="http://www.w3.org/1999/xlink" version="1.1" id="Layer_1" x="0px" y="0px" width="100px" height="86.3247863248px" viewBox="0 0 117.5 101" enable-background="new 0 0 117.5 101" xml:space="preserve">
<g>
	<path fill="#000000" d="M108.284,19.193H92.029c-1.213,0-2.301,0.75-2.731,1.882l-12.53,32.908H57.316V40.802h12.785   c1.615,0,2.923-1.309,2.923-2.922s-1.308-2.922-2.923-2.922H17.161l-0.301-0.792c-0.575-1.508-2.269-2.26-3.771-1.691   c-1.508,0.575-2.265,2.263-1.691,3.771l11.787,30.956c0.397,1.042,1.35,1.767,2.458,1.872l47.64,4.463   c0.094,0.009,0.186,0.012,0.273,0.012c1.204,0,2.298-0.742,2.731-1.884l17.756-46.627h14.24c1.615,0,2.922-1.309,2.922-2.922   S109.899,19.193,108.284,19.193z M52.933,53.983H38.961l-2.464-13.181h16.436V53.983z M52.933,58.367v7.394l-11.981-1.124   l-1.171-6.27H52.933z M32.118,40.802c0,0.135-0.032,0.265-0.006,0.402L34.5,53.983H24.405l-5.019-13.181H32.118z M26.075,58.367   h9.245l1.093,5.845L28,63.424L26.075,58.367z M71.616,67.511l-14.3-1.339v-7.805h17.782L71.616,67.511z"/>
	<path fill="#000000" d="M74.615,75.142c-5.685,0-10.311,4.623-10.311,10.308c0,5.688,4.626,10.313,10.311,10.313   s10.308-4.626,10.308-10.313C84.923,79.765,80.3,75.142,74.615,75.142z M74.615,89.918c-2.463,0-4.466-2.006-4.466-4.469   c0-2.46,2.003-4.464,4.466-4.464c2.46,0,4.464,2.004,4.464,4.464C79.079,87.912,77.075,89.918,74.615,89.918z"/>
	<path fill="#000000" d="M26.458,75.142c-5.685,0-10.311,4.623-10.311,10.308c0,5.688,4.626,10.313,10.311,10.313   s10.311-4.626,10.311-10.313C36.769,79.765,32.143,75.142,26.458,75.142z M26.458,89.918c-2.463,0-4.466-2.006-4.466-4.469   c0-2.46,2.003-4.464,4.466-4.464s4.466,2.004,4.466,4.464C30.925,87.912,28.921,89.918,26.458,89.918z"/>
</g>
</svg>