<svg xmlns="http://www.w3.org/2000/svg" xmlns:xlink="http://www.w3.org/1999/xlink" version="1.1" id="Layer_1" x="0px" y="0px" width="100px" height="100px" viewBox="0 0 100 100" enable-background="new 0 0 100 100" xml:space="preserve">
<g id="Captions">
</g>
<path fill="none" d="M43.295,45.77c8.138,0,14.759-6.854,14.759-15.279s-6.621-15.279-14.759-15.279  c-8.142,0-14.759,6.854-14.759,15.279S35.154,45.77,43.295,45.77z"/>
<path d="M43.059,78.617c-14.574,0-22.639-2.742-24.04-4.328c1.227-13.332,10.708-21.81,24.276-21.81  c4.41,0,8.332,0.775,11.671,2.305c2.602-2.009,5.631-3.484,8.934-4.267c-1.51-1.383-3.154-2.584-4.939-3.521  c3.361-3.612,6.711-8.317,6.711-16.506c0-12.77-10.039-23.164-22.376-23.164c-12.342,0-22.38,10.395-22.38,23.164  c0,8.199,3.901,12.796,7.028,16.424C17.86,52.181,11.397,65.579,11.397,74.598c0,10.74,22.139,11.904,31.662,11.904  c1.819,0,4.103-0.043,6.603-0.188c-1.53-2.329-2.656-4.946-3.283-7.752C45.308,78.595,44.211,78.617,43.059,78.617z M43.295,15.211  c8.138,0,14.759,6.854,14.759,15.279S51.434,45.77,43.295,45.77c-8.142,0-14.759-6.854-14.759-15.279S35.154,15.211,43.295,15.211z"/>
<path d="M88.604,76.008v-5.188l-2.805-0.996c-1.068-0.381-1.93-1.197-2.363-2.244c0,0,0,0,0-0.001  c-0.436-1.051-0.404-2.236,0.084-3.263l1.275-2.688l-3.67-3.667l-2.684,1.275c-1.027,0.488-2.215,0.52-3.264,0.085l0,0  c-1.051-0.436-1.863-1.295-2.246-2.364l-0.996-2.804h-5.188l-0.998,2.804c-0.379,1.068-1.195,1.929-2.242,2.364h-0.002  c-1.049,0.435-2.234,0.403-3.262-0.085l-2.686-1.275l-3.67,3.667l1.277,2.688c0.486,1.024,0.52,2.214,0.084,3.263  c0,0.001,0,0.001-0.002,0.001c-0.434,1.05-1.293,1.863-2.361,2.244l-2.804,0.996v5.188l2.804,0.996  c1.068,0.381,1.928,1.195,2.361,2.244c0.002,0,0.002,0,0.002,0.001c0.436,1.05,0.404,2.235-0.084,3.263l-1.277,2.686l3.67,3.669  l2.686-1.275c1.023-0.488,2.213-0.52,3.262-0.085c0.002,0,0.002,0,0.002,0c1.049,0.436,1.863,1.294,2.242,2.363l0.998,2.805h5.188  l0.99-2.787c0.385-1.077,1.207-1.946,2.266-2.385v-0.001c1.039-0.433,2.215-0.403,3.232,0.079l2.701,1.286l3.67-3.669l-1.277-2.687  c-0.486-1.026-0.518-2.212-0.084-3.261l0.002-0.001c0.436-1.05,1.295-1.864,2.365-2.246L88.604,76.008z M69.344,80.475  c-3.902,0-7.064-3.16-7.064-7.061c0-3.901,3.162-7.063,7.064-7.063c3.9,0,7.063,3.162,7.063,7.063  C76.406,77.314,73.244,80.475,69.344,80.475z"/>
</svg>